<?xml version="1.0" standalone="no"?><!DOCTYPE svg PUBLIC "-//W3C//DTD SVG 1.1//EN" "http://www.w3.org/Graphics/SVG/1.1/DTD/svg11.dtd"><svg t="1526714642952" class="icon" style="" viewBox="0 0 1024 1024" version="1.1" xmlns="http://www.w3.org/2000/svg" p-id="3857" xmlns:xlink="http://www.w3.org/1999/xlink" width="30" height="30"><defs><style type="text/css"></style></defs><path d="M62.8 859.3c2.3-4.9 2.1-10.3 3.2-15.5 8.2-37.6 28.3-68.3 55.3-94.9 33.5-33 73.4-56.3 116.3-74.7 48.4-20.8 98.8-34.1 150.8-42.2 9.2-1.4 18.5-2.7 27.8-4.1-0.6-1.6-2.2-1.5-3.4-2.1-81.8-36.8-132.9-98.9-150.1-187-25.8-132.7 62.6-264.2 194.7-291.7 10.3-2.1 20.6-3.7 31.1-4.7 0.8-0.1 1.6 0.1 1.9-1h3.8c0.6 0.6 1.3 0.6 1.9 0h4.8c2.2 0.8 4.5 0.8 6.7 0h5.7c2.2 0.8 4.5 0.8 6.7 0h4.8c1 0.7 1.9 0.7 2.9 0h1.9c5.5 2 11.3 1.8 17 2.6 96.9 14.4 176.7 82.8 205 176 37.4 123.3-24 254.6-142.6 305.3-1.4 0.6-2.8 1.3-5.1 2.4 23.2 2.8 45.3 6.3 67.1 11 63.8 13.8 124.8 34.9 180 70.7 32.3 20.9 60.8 46 81.7 78.8 13.7 21.4 22.5 44.6 25.4 70 0.1 0.7-0.1 1.6 1 1.9v2.9c-0.6 0.5-0.5 1.2-0.5 1.9s-0.1 1.4 0.5 1.9v12.4c-1.6 8.5-6.6 13.3-15.3 14.3h-8.6c-10-2.4-14.4-7.8-15.5-18.9-0.1-29.4-11.1-54.8-28.9-77.6-21.7-27.8-49.3-48.4-79.6-65.7-32.2-18.4-66.5-31.7-101.9-42.4-0.9-0.3-1.9-0.3-2.8-0.6-32-9.3-64.6-15.7-97.6-20.1-15.6-2.1-31.2-3.5-46.9-4.5-21.4-1.5-42.8-2.1-64.3-1.7-27.3 0.5-54.6 2.4-81.7 5.9-34.4 4.5-68.4 11-101.8 20.8-45.9 13.5-89.6 31.7-129.2 58.9-22.7 15.6-43 33.8-58.8 56.6-14.6 21-23.4 44-23.7 69.8-0.2 5-1.6 9.6-4.8 13.5-3 3.8-7.1 5.5-11.8 6h-8.6c-8.5-1.6-13.2-6.8-14.3-15.3v-12.4c0.6-0.6 0.6-1.3 0-1.9-0.2-1.4-0.2-3-0.2-4.6z" fill="#030000" p-id="3858"></path><path d="M62.8 878.4c2.3 7.4 7.4 12.2 14.3 15.3-4.1 0-8.3-0.1-12.4 0.1-1.7 0.1-2-0.3-2-2 0.2-4.5 0.1-8.9 0.1-13.4z" fill="#FBFBFB" p-id="3859"></path><path d="M943.5 893.7c7.4-2.3 12.3-7.3 15.3-14.3 0 4.1-0.1 8.3 0.1 12.4 0.1 1.7-0.3 2-2 2-4.5-0.2-8.9-0.1-13.4-0.1z" fill="#FCFCFC" p-id="3860"></path><path d="M507.4 141.8c-2.2 1.5-4.5 1.6-6.7 0h6.7zM519.8 141.8c-2.2 1.6-4.5 1.5-6.7 0h6.7z" fill="#181515" p-id="3861"></path><path d="M527.5 141.8c-1 1.7-1.9 1.3-2.9 0h2.9z" fill="#858484" p-id="3862"></path><path d="M496 141.8c-0.6 1.2-1.3 1.4-1.9 0h1.9z" fill="#7E7D7D" p-id="3863"></path><path d="M958 865c-0.1-0.8-0.3-1.6 0.8-1.8v1.9c-0.3 0.4-0.6 0.4-0.8-0.1z" fill="#706E6E" p-id="3864"></path><path d="M62.8 864.1c1.3 0.6 1.1 1.3 0 1.9v-1.9z" fill="#626060" p-id="3865"></path><path d="M958 865c0.3 0 0.5 0 0.8 0.1v1.9c-0.9-0.4-1-1.2-0.8-2z" fill="#4F4D4D" p-id="3866"></path><path d="M599.1 587.7c-21.2 10.5-43.7 16.3-67 18.5-50.3 4.9-97.1-6.1-139.1-34.3-54.1-36.3-86.4-87.1-94.5-151.9-14-111.6 60.3-214.1 170.5-236 43.8-8.7 86.3-3.9 127.2 14.1 1 0.4 2 1 2.9 1.5 11 6.1 20.4 14.4 29.7 22.9 20.7 18.8 37.1 41 49.7 65.9 13 25.6 21 52.9 23.8 81.5 4 41.7-2.3 81.7-19.6 120-10.6 23.4-24.5 44.4-42.1 63.2-10.7 11.4-22.3 21.7-35 30.8-2.1 1.4-4.5 2.3-6.5 3.8z" fill="#FEDD5D" p-id="3867"></path><path d="M878.7 874.5c-2.2 0-4.4 0.1-6.7 0.1H101c-0.4-24.4 7.7-46.1 20.6-66.3 18.1-28.1 42.9-49.3 70.6-67.2 42.7-27.6 89.5-45.6 138.5-58.2 73.4-19 148.1-25 223.6-20.9 50.7 2.8 100.7 10.4 149.6 24.6 0.9 0.3 1.8 0.7 2.7 1 40 14.6 76.2 35.8 108.5 63.4 19.7 16.8 36.4 36.4 48.4 59.6 8.2 15.8 13.9 32.4 15.3 50.3 0.5 4.6 2.4 9.1-0.1 13.6z" fill="#69CAFE" p-id="3868"></path><path d="M599.1 587.7c6.6-6 14-10.8 20.8-16.5 19.4-16.5 35.7-35.6 48.9-57.3 16.5-27.2 27-56.7 31.2-88.2 6-44.2-0.1-86.9-18.5-127.7-10.6-23.5-24.8-44.5-42.4-63.4-11.3-12.1-23.9-22.7-37.3-32.4-1-0.7-2.3-1.1-2.7-2.5 18.2 7.6 34.5 18.4 49.3 31.1 40.8 35 65.2 79.3 73.5 132.5 14.2 90.7-36.8 185.4-120.2 223.5-0.8 0.3-1.7 0.6-2.6 0.9z" fill="#EC8B1C" p-id="3869"></path><path d="M878.7 874.5c-0.4-34.4-13.2-64.1-34.1-90.8-22.4-28.5-50.7-49.9-81.7-68.1-16.9-9.9-34.4-18.4-52.5-25.8-1.3-0.5-2.5-1.4-3.7-2.1 15.8 3.7 30.9 9.3 46 15.2 37.7 14.6 73.2 33 104.5 58.9 24.3 20.1 44.7 43.3 56.1 73.4 4.8 12.7 7.6 25.9 7.1 39.6-13.8-0.2-27.8-0.3-41.7-0.3z" fill="#1C8EF0" p-id="3870"></path><path d="M507.3 502.5c-25.7-0.4-48.4-10.6-68.6-27.3-8-6.6-15.1-14.1-21.4-22.3-3.4-4.4-3.2-8.9 0.5-11.8s8.1-1.9 11.5 2.4c14.7 18.4 32.3 32.8 55 40 25.7 8.1 49.2 2.3 71.3-11.5 12.1-7.5 22.7-16.8 32.3-27.3 0.9-0.9 1.7-1.9 2.7-2.7 3.6-3.2 8.1-3.3 11.1-0.2 2.9 3 3.1 7.4 0 10.8-18.7 20.1-39.5 37.3-66.3 45.6-8.9 2.7-18 4.2-28.1 4.3zM453 357.5c0 16.8-13.8 30.5-30.7 30.4-16.8-0.1-30.4-14-30.3-30.9 0.1-16.5 13.9-30.2 30.5-30.2 16.8 0.1 30.6 13.9 30.5 30.7zM638.2 357.5c0 16.8-13.8 30.5-30.7 30.5-16.8 0-30.4-13.9-30.4-30.8 0.1-16.5 13.9-30.2 30.5-30.2 16.8-0.1 30.6 13.6 30.6 30.5zM489.6 703.8c-68 0.6-133.7 13.1-196.7 38.7-7 2.8-12.5-0.8-11.7-7.6 0.4-3.5 2.7-5.2 5.6-6.4 30.5-12.5 61.8-22 94.1-28.6 29-5.9 58.2-9.5 87.7-10.8 12.2-0.5 24.4-0.5 36.7-0.6 5.7 0 8.9 2.8 8.9 7.6 0.1 4.8-3.1 7.6-8.9 7.6-5.2 0.2-10.5 0.1-15.7 0.1zM560.7 692.3c15.5 1.7 31.6 4.2 47.7 7.1 21.4 4 42.5 9 63.4 14.9 7.3 2.1 10.4 5.4 9.2 10.4-1.2 4.8-5.8 6.5-13 4.5-31.9-9.2-64.3-15.8-97.2-20.4-4.9-0.7-9.8-1.1-14.6-1.9-3.3-0.6-5.2-3.1-5.7-6.3-0.5-3.1 1-5.5 3.5-7.3 1.8-1.4 3.9-1 6.7-1zM179.3 807.8c-3.5-0.1-6.1-1.7-7.3-5.1-1.4-3.8 0.1-6.8 3.1-9.2 7.1-5.8 14.3-11.5 22-16.6 4.7-3.2 9.4-6.4 14.3-9.4 4.4-2.7 8.5-2.1 10.9 1.5 2.7 4 2.1 8-2.4 11-12.4 8.3-24.8 16.5-36.1 26.3-1.2 1-2.8 1.6-4.5 1.5z" fill="#FEFEFE" p-id="3871"></path></svg>